PathFileType	4	(X/Y/Z)	T00_Trial_0-99.trc
DataRate	CameraRate	NumFrames	NumMarkers	Units	OrigDataRate	OrigDataStartFrame	OrigNumFrames
60	60	5	22	m	60	0	99
Frame#	Time	Hip			RHip			RKnee			RAnkle			RBigToe			RSmallToe			RHeel			LHip			LKnee			LAnkle			LBigToe			LSmallToe			LHeel			Neck			Head			Nose			RShoulder			RElbow			RWrist			LShoulder			LElbow			LWrist		
		X1	Y1	Z1	X2	Y2	Z2	X3	Y3	Z3	X4	Y4	Z4	X5	Y5	Z5	X6	Y6	Z6	X7	Y7	Z7	X8	Y8	Z8	X9	Y9	Z9	X10	Y10	Z10	X11	Y11	Z11	X12	Y12	Z12	X13	Y13	Z13	X14	Y14	Z14	X15	Y15	Z15	X16	Y16	Z16	X17	Y17	Z17	X18	Y18	Z18	X19	Y19	Z19	X20	Y20	Z20	X21	Y21	Z21	X22	Y22	Z22
0	0.0	0.04055436718033654	0.899838765895636	-1.4679564354975034	-0.0705363742643377	0.9347695164448202	-0.780280080000044	-0.05989845316250217	0.46290360238542944	-1.454139502543334	0.014687909025879122	0.1423966111686466	-1.5979645004660243	-0.0659563464269647	0.0627019166752247	-1.4958374047058205	-0.07269688403198575	0.062279602982172735	-1.519253494245177	0.028521350021757937	0.12858534047417428	-1.6490033926576746	0.12960623268437965	0.8664601194054627	-1.4521842941968133	0.04324561486938468	0.4986642312993019	-1.2342674640695954	0.017339085567729326	0.13830775780222232	-1.1636212441790632	-0.07679476932870577	0.11632896449042716	-0.9719307099532867	-0.01888912224787854	0.11497039047160115	-0.9937397308707249	0.01481803070896777	0.12062152703434458	-1.2055230735227564	-0.07431014194777326	1.4791168045434502	-1.4156232819504166	-0.08476268146691074	1.6822563254669674	-1.305005528954584	-0.10799030277418084	1.4992164194279118	-1.1855906695839291	-0.21607520229985724	1.3614227463537831	-1.4793297417273623	-0.32031255195521197	1.0734849646106068	-1.5283251223775771	-0.3737505505882302	0.8409864370003992	-1.4216302272790897	0.1446576344308315	1.4139765159317161	-1.458860734815414	0.25767929125100003	1.1487903344269765	-1.4670210564160817	0.3584066310692145	0.9023387954512982	-1.4472136694429831
1	0.0166666666666666	0.03128122547756361	0.8987949329752726	-1.458708439241735	-0.0705363742643377	0.9347695164448202	-0.780280080000044	-0.05793730088589129	0.4657576861511707	-1.4510173926492493	0.015405384001379169	0.14462863980443177	-1.5983580039438072	-0.06434369134708216	0.06515918756808785	-1.4892616181680187	-0.07214529157320068	0.06276011983824817	-1.5211524677955799	0.03317341685961426	0.1242332824109982	-1.6466732081374926	0.12546828716692884	0.8687582987670793	-1.4409397870006084	0.038907836565650465	0.49457660398000997	-1.2209555038200062	0.01179981270753784	0.1390360718478088	-1.1647994286802559	-0.07202967187133094	0.10597492025152656	-0.9733416937936922	-0.014780231803915432	0.10611823173698089	-0.9979547937821658	0.008184068104986272	0.1110050721974455	-1.2032669931167748	-0.06082197624489168	1.479670106017512	-1.4067054086539217	-0.07345267518564735	1.6830386714726724	-1.2894982654883689	-0.09330295042569912	1.5058190680772305	-1.1822339150854888	-0.2131130838762318	1.3663722831595175	-1.4712833971520902	-0.31575826123956674	1.084514025667994	-1.5200582957810862	-0.37730456122362316	0.8600807492760011	-1.3975547499040473	0.15034385958464916	1.410461567523207	-1.4506541744046915	0.26320795121731094	1.1449762723169452	-1.4594783323697547	0.35749806219401986	0.9025529133777458	-1.4337543006113054
2	0.0333333333333333	0.0223000018694848	0.8980121657036936	-1.44945173840781	-0.0705363742643377	0.9347695164448202	-0.780280080000044	-0.05620126965546812	0.4684803577120231	-1.4478772508464863	0.016114576164267314	0.1467418499262087	-1.5986610102806402	-0.06270284296212315	0.06735311962508733	-1.4831449549287168	-0.07156381757438941	0.0632943233669476	-1.5229400997416527	0.037451738887947034	0.12038519424865204	-1.6443609156337151	0.12121623401408495	0.8712919287638491	-1.429909323448251	0.0344278228274954	0.49096920054753795	-1.207985498447677	0.0065599167329029795	0.13968095617208692	-1.1656485299862127	-0.0675712348507428	0.09644432527152443	-0.9746970467274909	-0.01112529778326488	0.09803219175782231	-1.0020698022185837	0.0019425284736311818	0.10224681888600719	-1.2010527005262859	-0.047681548523775326	1.480226904746646	-1.3978762441731698	-0.06180245283094726	1.6839973804616837	-1.274302040241436	-0.0787538375523034	1.5121394311140117	-1.1786142189261148	-0.20979720014302453	1.3712856478603885	-1.4631675428598172	-0.31176226008756686	1.095383790597295	-1.5117740911459183	-0.38086593516403516	0.878983374450228	-1.3735952002611538	0.15598668943472332	1.4070290076022884	-1.442608804757359	0.26846435003857366	1.1411466834183523	-1.4517587063649986	0.35667668899292715	0.9022820574988863	-1.4204406172072888
3	0.05	0.013868292217986708	0.8977634548083547	-1.4400984746856005	-0.0705363742643377	0.9347695164448202	-0.780280080000044	-0.05497506120125486	0.470962848816895	-1.4446069004395312	0.016782385423053856	0.14869481076389984	-1.5987810483870526	-0.061008944915625196	0.06899955830741435	-1.4778591134001857	-0.0709087190943966	0.06395027267081989	-1.5245038735515122	0.040971571035665934	0.11761297234887108	-1.6420857834945735	0.11665009121149396	0.8742496569209394	-1.4192220145530599	0.02965364295007345	0.4883434390523599	-1.1956525531173894	0.0019351231430297744	0.14018059593329377	-1.1658749659822596	-0.06370212112255629	0.0885442886745512	-0.9759140139279626	-0.008348764135384662	0.0914006988140843	-1.0058576695566006	-0.0034738269044429348	0.09519024914304913	-1.1989212776407043	-0.03516363049479266	1.4807686489976062	-1.3891317364907634	-0.04940765044079497	1.6852883431115657	-1.259671346723276	-0.06446084069531635	1.517834088283357	-1.1743613369896364	-0.2057208677063037	1.3761716667457207	-1.454865908251685	-0.3088613972426891	1.1060473110829052	-1.5033454620168687	-0.3844072284195463	0.8976946620780502	-1.3496959166862141	0.16161298265152688	1.4036992445567005	-1.4347667595487816	0.2732366153373146	1.137234027649597	-1.4436184669849423	0.356027233946683	0.9010348014985613	-1.407347209060549
4	0.0666666666666666	0.006180766752525356	0.8982676858737241	-1.4305739588574897	-0.0705363742643377	0.9347695164448202	-0.780280080000044	-0.05458155839401191	0.4731403528226625	-1.4409981887387622	0.017351184569546742	0.15056917867893885	-1.5986674043209301	-0.05923795471198584	0.06983079526622496	-1.4736006374538553	-0.07013798066428097	0.06477571816918136	-1.5257326829133042	0.04342147680833099	0.11644177490090486	-1.6398950838653938	0.11154481727506974	0.8776793372599974	-1.40896830205931	0.024480321988860288	0.4871311269990217	-1.184201598025782	-0.0018070987540018495	0.14048186261970724	-1.1652844271485028	-0.0606059729503254	0.08291804916882843	-0.9768422083672458	-0.006701259815172507	0.08666283573645972	-1.0089328659093935	-0.007660861858126154	0.09050516908738905	-1.1968974975137852	-0.023455492152288402	1.481260678575605	-1.3803845338962608	-0.03594069619885863	1.6870188691920398	-1.2458161416877924	-0.050584016938486596	1.5225542470750633	-1.1690790257977999	-0.20055857638035438	1.3810752750102657	-1.4462714915780759	-0.30744068140238656	1.1165085139160777	-1.4945669222954834	-0.38785988754258083	0.916256717618556	-1.3257880618769746	0.16730573604620108	1.400408865090327	-1.4270648165220572	0.2774247198915861	1.1331475965556952	-1.4348478017420134	0.3556012288434042	0.898447190569602	-1.3945252277689584
